<?xml version="1.0" standalone="no"?>
<!DOCTYPE svg PUBLIC "-//W3C//DTD SVG 20010904//EN"
 "http://www.w3.org/TR/2001/REC-SVG-20010904/DTD/svg10.dtd">
<svg version="1.0" xmlns="http://www.w3.org/2000/svg"
 width="671.000000pt" height="372.000000pt" viewBox="0 0 671.000000 372.000000"
 preserveAspectRatio="xMidYMid meet">

<g transform="translate(0.000000,372.000000) scale(0.100000,-0.100000)"
fill="#000000" stroke="none">
<path d="M3295 2287 c-59 -24 -93 -47 -133 -93 -68 -76 -80 -146 -30 -173 33
-19 50 -6 20 15 -66 46 29 202 141 234 67 18 116 10 141 -23 18 -24 21 -41 19
-105 -2 -79 -21 -162 -87 -376 -43 -141 -39 -160 27 -123 50 27 213 185 252
245 15 23 31 42 35 42 4 0 4 -19 0 -42 -16 -88 -21 -203 -11 -230 14 -38 36
-35 107 11 112 72 238 229 297 368 33 77 54 180 40 194 -7 7 -15 -12 -23 -58
-17 -91 -55 -182 -114 -272 -80 -125 -214 -251 -265 -251 -19 0 -21 6 -21 78
0 65 18 187 46 315 11 48 -11 29 -45 -40 -73 -148 -294 -384 -328 -350 -3 4 8
55 26 114 88 289 110 417 80 476 -28 54 -101 72 -174 44z"/>
<path d="M1640 2270 c0 -5 5 -10 11 -10 5 0 7 5 4 10 -3 6 -8 10 -11 10 -2 0
-4 -4 -4 -10z"/>
<path d="M2455 2264 c-83 -12 -179 -41 -263 -80 -144 -67 -232 -169 -206 -238
13 -33 94 -60 109 -36 3 6 -4 10 -17 10 -39 0 -68 27 -68 63 0 45 40 100 108
145 115 78 236 115 382 116 109 1 147 -14 188 -75 34 -49 28 -133 -16 -221
-79 -161 -287 -315 -413 -306 l-44 3 1 65 c2 80 39 202 100 324 45 89 52 112
34 101 -30 -19 -138 -282 -161 -391 -10 -50 -10 -67 0 -93 12 -28 17 -31 58
-31 93 0 244 81 340 182 172 183 199 377 60 438 -44 19 -140 31 -192 24z"/>
<path d="M4615 2173 c-15 -43 -38 -107 -51 -143 -12 -36 -40 -114 -60 -173
-36 -107 -37 -109 -86 -136 -28 -16 -77 -34 -109 -40 -53 -11 -64 -10 -97 6
-23 11 -44 32 -55 56 -15 30 -24 37 -48 37 -19 0 -34 -8 -45 -25 -28 -43 0
-71 45 -43 16 10 24 7 50 -15 17 -14 47 -29 66 -33 44 -8 128 10 188 41 45 24
47 24 47 6 0 -34 22 -69 50 -81 38 -16 104 2 212 57 84 43 108 47 108 19 0 -7
9 -21 20 -31 16 -15 32 -17 91 -13 39 3 76 11 82 18 10 10 7 11 -13 6 -118
-30 -165 -14 -164 53 1 23 -2 41 -7 41 -5 0 -9 -4 -9 -9 0 -12 -125 -86 -188
-110 -54 -22 -117 -27 -140 -13 -7 5 -15 24 -18 43 -6 36 7 82 120 402 30 86
52 157 47 157 -5 0 -21 -35 -36 -77z"/>
<path d="M1648 1683 c-21 -5 -23 -19 -5 -26 9 -4 8 -8 -3 -16 -13 -10 -13 -12
0 -21 8 -5 22 -10 30 -10 13 0 13 1 0 10 -12 7 -12 10 4 16 18 7 18 8 2 20
-16 11 -16 13 1 23 19 11 5 13 -29 4z"/>
<path d="M1638 1485 c-6 -29 8 -32 38 -10 16 13 17 16 4 25 -24 16 -37 12 -42
-15z"/>
<path d="M1630 1343 c0 -12 3 -14 8 -7 4 7 16 14 27 17 15 4 14 5 -7 6 -21 1
-28 -4 -28 -16z"/>
<path d="M1630 1220 c0 -5 16 -10 36 -10 21 0 33 4 29 10 -3 6 -19 10 -36 10
-16 0 -29 -4 -29 -10z"/>
</g>
</svg>
